<?xml version="1.0" encoding="utf-8"?>
<svg xmlns="http://www.w3.org/2000/svg" xmlns:xlink="http://www.w3.org/1999/xlink" width="600" height="400" viewBox="0 0 2400 1600">
<defs>
  <clipPath id="clip780">
    <rect x="0" y="0" width="2400" height="1600"/>
  </clipPath>
</defs>
<path clip-path="url(#clip780)" d="
M0 1600 L2400 1600 L2400 0 L0 0  Z
  " fill="#ffffff" fill-rule="evenodd" fill-opacity="1"/>
<defs>
  <clipPath id="clip781">
    <rect x="480" y="0" width="1681" height="1600"/>
  </clipPath>
</defs>
<path clip-path="url(#clip780)" d="
M156.598 1486.45 L2352.76 1486.45 L2352.76 47.2441 L156.598 47.2441  Z
  " fill="#ffffff" fill-rule="evenodd" fill-opacity="1"/>
<defs>
  <clipPath id="clip782">
    <rect x="156" y="47" width="2197" height="1440"/>
  </clipPath>
</defs>
<polyline clip-path="url(#clip782)" style="stroke:#000000; stroke-width:2; stroke-opacity:0.1; fill:none" points="
  440.272,1486.45 440.272,47.2441 
  "/>
<polyline clip-path="url(#clip782)" style="stroke:#000000; stroke-width:2; stroke-opacity:0.1; fill:none" points="
  847.474,1486.45 847.474,47.2441 
  "/>
<polyline clip-path="url(#clip782)" style="stroke:#000000; stroke-width:2; stroke-opacity:0.1; fill:none" points="
  1254.68,1486.45 1254.68,47.2441 
  "/>
<polyline clip-path="url(#clip782)" style="stroke:#000000; stroke-width:2; stroke-opacity:0.1; fill:none" points="
  1661.88,1486.45 1661.88,47.2441 
  "/>
<polyline clip-path="url(#clip782)" style="stroke:#000000; stroke-width:2; stroke-opacity:0.1; fill:none" points="
  2069.08,1486.45 2069.08,47.2441 
  "/>
<polyline clip-path="url(#clip780)" style="stroke:#000000; stroke-width:4; stroke-opacity:1; fill:none" points="
  156.598,1486.45 2352.76,1486.45 
  "/>
<polyline clip-path="url(#clip780)" style="stroke:#000000; stroke-width:4; stroke-opacity:1; fill:none" points="
  440.272,1486.45 440.272,1469.18 
  "/>
<polyline clip-path="url(#clip780)" style="stroke:#000000; stroke-width:4; stroke-opacity:1; fill:none" points="
  847.474,1486.45 847.474,1469.18 
  "/>
<polyline clip-path="url(#clip780)" style="stroke:#000000; stroke-width:4; stroke-opacity:1; fill:none" points="
  1254.68,1486.45 1254.68,1469.18 
  "/>
<polyline clip-path="url(#clip780)" style="stroke:#000000; stroke-width:4; stroke-opacity:1; fill:none" points="
  1661.88,1486.45 1661.88,1469.18 
  "/>
<polyline clip-path="url(#clip780)" style="stroke:#000000; stroke-width:4; stroke-opacity:1; fill:none" points="
  2069.08,1486.45 2069.08,1469.18 
  "/>
<path clip-path="url(#clip780)" d="M 0 0 M430.654 1543.18 L438.293 1543.18 L438.293 1516.82 L429.983 1518.49 L429.983 1514.23 L438.246 1512.56 L442.922 1512.56 L442.922 1543.18 L450.561 1543.18 L450.561 1547.12 L430.654 1547.12 L430.654 1543.18 Z" fill="#000000" fill-rule="evenodd" fill-opacity="1" /><path clip-path="url(#clip780)" d="M 0 0 M842.127 1543.18 L858.447 1543.18 L858.447 1547.12 L836.502 1547.12 L836.502 1543.18 Q839.164 1540.43 843.748 1535.8 Q848.354 1531.15 849.535 1529.81 Q851.78 1527.28 852.66 1525.55 Q853.562 1523.79 853.562 1522.1 Q853.562 1519.34 851.618 1517.61 Q849.697 1515.87 846.595 1515.87 Q844.396 1515.87 841.942 1516.63 Q839.512 1517.4 836.734 1518.95 L836.734 1514.23 Q839.558 1513.09 842.012 1512.51 Q844.465 1511.93 846.502 1511.93 Q851.873 1511.93 855.067 1514.62 Q858.261 1517.31 858.261 1521.8 Q858.261 1523.93 857.451 1525.85 Q856.664 1527.74 854.558 1530.34 Q853.979 1531.01 850.877 1534.23 Q847.775 1537.42 842.127 1543.18 Z" fill="#000000" fill-rule="evenodd" fill-opacity="1" /><path clip-path="url(#clip780)" d="M 0 0 M1258.92 1528.49 Q1262.28 1529.2 1264.16 1531.47 Q1266.05 1533.74 1266.05 1537.07 Q1266.05 1542.19 1262.54 1544.99 Q1259.02 1547.79 1252.54 1547.79 Q1250.36 1547.79 1248.05 1547.35 Q1245.75 1546.93 1243.3 1546.08 L1243.3 1541.56 Q1245.24 1542.7 1247.56 1543.28 Q1249.87 1543.86 1252.4 1543.86 Q1256.8 1543.86 1259.09 1542.12 Q1261.4 1540.38 1261.4 1537.07 Q1261.4 1534.02 1259.25 1532.31 Q1257.12 1530.57 1253.3 1530.57 L1249.27 1530.57 L1249.27 1526.73 L1253.48 1526.73 Q1256.93 1526.73 1258.76 1525.36 Q1260.59 1523.97 1260.59 1521.38 Q1260.59 1518.72 1258.69 1517.31 Q1256.82 1515.87 1253.3 1515.87 Q1251.38 1515.87 1249.18 1516.29 Q1246.98 1516.7 1244.34 1517.58 L1244.34 1513.42 Q1247 1512.68 1249.32 1512.31 Q1251.66 1511.93 1253.72 1511.93 Q1259.04 1511.93 1262.14 1514.37 Q1265.24 1516.77 1265.24 1520.89 Q1265.24 1523.76 1263.6 1525.75 Q1261.96 1527.72 1258.92 1528.49 Z" fill="#000000" fill-rule="evenodd" fill-opacity="1" /><path clip-path="url(#clip780)" d="M 0 0 M1664.89 1516.63 L1653.08 1535.08 L1664.89 1535.08 L1664.89 1516.63 M1663.66 1512.56 L1669.54 1512.56 L1669.54 1535.08 L1674.47 1535.08 L1674.47 1538.97 L1669.54 1538.97 L1669.54 1547.12 L1664.89 1547.12 L1664.89 1538.97 L1649.29 1538.97 L1649.29 1534.46 L1663.66 1512.56 Z" fill="#000000" fill-rule="evenodd" fill-opacity="1" /><path clip-path="url(#clip780)" d="M 0 0 M2059.36 1512.56 L2077.72 1512.56 L2077.72 1516.5 L2063.64 1516.5 L2063.64 1524.97 Q2064.66 1524.62 2065.68 1524.46 Q2066.7 1524.27 2067.72 1524.27 Q2073.5 1524.27 2076.88 1527.44 Q2080.26 1530.62 2080.26 1536.03 Q2080.26 1541.61 2076.79 1544.71 Q2073.32 1547.79 2067 1547.79 Q2064.82 1547.79 2062.55 1547.42 Q2060.31 1547.05 2057.9 1546.31 L2057.9 1541.61 Q2059.99 1542.74 2062.21 1543.3 Q2064.43 1543.86 2066.91 1543.86 Q2070.91 1543.86 2073.25 1541.75 Q2075.59 1539.64 2075.59 1536.03 Q2075.59 1532.42 2073.25 1530.31 Q2070.91 1528.21 2066.91 1528.21 Q2065.03 1528.21 2063.16 1528.62 Q2061.3 1529.04 2059.36 1529.92 L2059.36 1512.56 Z" fill="#000000" fill-rule="evenodd" fill-opacity="1" /><polyline clip-path="url(#clip782)" style="stroke:#000000; stroke-width:2; stroke-opacity:0.1; fill:none" points="
  156.598,1445.72 2352.76,1445.72 
  "/>
<polyline clip-path="url(#clip782)" style="stroke:#000000; stroke-width:2; stroke-opacity:0.1; fill:none" points="
  156.598,1218.63 2352.76,1218.63 
  "/>
<polyline clip-path="url(#clip782)" style="stroke:#000000; stroke-width:2; stroke-opacity:0.1; fill:none" points="
  156.598,991.538 2352.76,991.538 
  "/>
<polyline clip-path="url(#clip782)" style="stroke:#000000; stroke-width:2; stroke-opacity:0.1; fill:none" points="
  156.598,764.45 2352.76,764.45 
  "/>
<polyline clip-path="url(#clip782)" style="stroke:#000000; stroke-width:2; stroke-opacity:0.1; fill:none" points="
  156.598,537.361 2352.76,537.361 
  "/>
<polyline clip-path="url(#clip782)" style="stroke:#000000; stroke-width:2; stroke-opacity:0.1; fill:none" points="
  156.598,310.272 2352.76,310.272 
  "/>
<polyline clip-path="url(#clip782)" style="stroke:#000000; stroke-width:2; stroke-opacity:0.1; fill:none" points="
  156.598,83.1834 2352.76,83.1834 
  "/>
<polyline clip-path="url(#clip780)" style="stroke:#000000; stroke-width:4; stroke-opacity:1; fill:none" points="
  156.598,1486.45 156.598,47.2441 
  "/>
<polyline clip-path="url(#clip780)" style="stroke:#000000; stroke-width:4; stroke-opacity:1; fill:none" points="
  156.598,1445.72 182.952,1445.72 
  "/>
<polyline clip-path="url(#clip780)" style="stroke:#000000; stroke-width:4; stroke-opacity:1; fill:none" points="
  156.598,1218.63 182.952,1218.63 
  "/>
<polyline clip-path="url(#clip780)" style="stroke:#000000; stroke-width:4; stroke-opacity:1; fill:none" points="
  156.598,991.538 182.952,991.538 
  "/>
<polyline clip-path="url(#clip780)" style="stroke:#000000; stroke-width:4; stroke-opacity:1; fill:none" points="
  156.598,764.45 182.952,764.45 
  "/>
<polyline clip-path="url(#clip780)" style="stroke:#000000; stroke-width:4; stroke-opacity:1; fill:none" points="
  156.598,537.361 182.952,537.361 
  "/>
<polyline clip-path="url(#clip780)" style="stroke:#000000; stroke-width:4; stroke-opacity:1; fill:none" points="
  156.598,310.272 182.952,310.272 
  "/>
<polyline clip-path="url(#clip780)" style="stroke:#000000; stroke-width:4; stroke-opacity:1; fill:none" points="
  156.598,83.1834 182.952,83.1834 
  "/>
<path clip-path="url(#clip780)" d="M 0 0 M63.4226 1431.51 Q59.8115 1431.51 57.9828 1435.08 Q56.1773 1438.62 56.1773 1445.75 Q56.1773 1452.86 57.9828 1456.42 Q59.8115 1459.96 63.4226 1459.96 Q67.0569 1459.96 68.8624 1456.42 Q70.6911 1452.86 70.6911 1445.75 Q70.6911 1438.62 68.8624 1435.08 Q67.0569 1431.51 63.4226 1431.51 M63.4226 1427.81 Q69.2328 1427.81 72.2883 1432.42 Q75.367 1437 75.367 1445.75 Q75.367 1454.48 72.2883 1459.08 Q69.2328 1463.67 63.4226 1463.67 Q57.6125 1463.67 54.5338 1459.08 Q51.4782 1454.48 51.4782 1445.75 Q51.4782 1437 54.5338 1432.42 Q57.6125 1427.81 63.4226 1427.81 Z" fill="#000000" fill-rule="evenodd" fill-opacity="1" /><path clip-path="url(#clip780)" d="M 0 0 M83.5845 1457.12 L88.4688 1457.12 L88.4688 1463 L83.5845 1463 L83.5845 1457.12 Z" fill="#000000" fill-rule="evenodd" fill-opacity="1" /><path clip-path="url(#clip780)" d="M 0 0 M108.654 1431.51 Q105.043 1431.51 103.214 1435.08 Q101.409 1438.62 101.409 1445.75 Q101.409 1452.86 103.214 1456.42 Q105.043 1459.96 108.654 1459.96 Q112.288 1459.96 114.094 1456.42 Q115.922 1452.86 115.922 1445.75 Q115.922 1438.62 114.094 1435.08 Q112.288 1431.51 108.654 1431.51 M108.654 1427.81 Q114.464 1427.81 117.52 1432.42 Q120.598 1437 120.598 1445.75 Q120.598 1454.48 117.52 1459.08 Q114.464 1463.67 108.654 1463.67 Q102.844 1463.67 99.765 1459.08 Q96.7095 1454.48 96.7095 1445.75 Q96.7095 1437 99.765 1432.42 Q102.844 1427.81 108.654 1427.81 Z" fill="#000000" fill-rule="evenodd" fill-opacity="1" /><path clip-path="url(#clip780)" d="M 0 0 M64.6495 1204.43 Q61.0384 1204.43 59.2097 1207.99 Q57.4041 1211.53 57.4041 1218.66 Q57.4041 1225.77 59.2097 1229.33 Q61.0384 1232.87 64.6495 1232.87 Q68.2837 1232.87 70.0892 1229.33 Q71.9179 1225.77 71.9179 1218.66 Q71.9179 1211.53 70.0892 1207.99 Q68.2837 1204.43 64.6495 1204.43 M64.6495 1200.72 Q70.4596 1200.72 73.5152 1205.33 Q76.5938 1209.91 76.5938 1218.66 Q76.5938 1227.39 73.5152 1231.99 Q70.4596 1236.58 64.6495 1236.58 Q58.8393 1236.58 55.7606 1231.99 Q52.7051 1227.39 52.7051 1218.66 Q52.7051 1209.91 55.7606 1205.33 Q58.8393 1200.72 64.6495 1200.72 Z" fill="#000000" fill-rule="evenodd" fill-opacity="1" /><path clip-path="url(#clip780)" d="M 0 0 M84.8114 1230.03 L89.6956 1230.03 L89.6956 1235.91 L84.8114 1235.91 L84.8114 1230.03 Z" fill="#000000" fill-rule="evenodd" fill-opacity="1" /><path clip-path="url(#clip780)" d="M 0 0 M100.691 1231.97 L108.33 1231.97 L108.33 1205.61 L100.02 1207.27 L100.02 1203.01 L108.283 1201.35 L112.959 1201.35 L112.959 1231.97 L120.598 1231.97 L120.598 1235.91 L100.691 1235.91 L100.691 1231.97 Z" fill="#000000" fill-rule="evenodd" fill-opacity="1" /><path clip-path="url(#clip780)" d="M 0 0 M65.0198 977.337 Q61.4087 977.337 59.58 980.902 Q57.7745 984.443 57.7745 991.573 Q57.7745 998.679 59.58 1002.24 Q61.4087 1005.79 65.0198 1005.79 Q68.6541 1005.79 70.4596 1002.24 Q72.2883 998.679 72.2883 991.573 Q72.2883 984.443 70.4596 980.902 Q68.6541 977.337 65.0198 977.337 M65.0198 973.633 Q70.83 973.633 73.8855 978.24 Q76.9642 982.823 76.9642 991.573 Q76.9642 1000.3 73.8855 1004.91 Q70.83 1009.49 65.0198 1009.49 Q59.2097 1009.49 56.131 1004.91 Q53.0754 1000.3 53.0754 991.573 Q53.0754 982.823 56.131 978.24 Q59.2097 973.633 65.0198 973.633 Z" fill="#000000" fill-rule="evenodd" fill-opacity="1" /><path clip-path="url(#clip780)" d="M 0 0 M85.1818 1002.94 L90.066 1002.94 L90.066 1008.82 L85.1818 1008.82 L85.1818 1002.94 Z" fill="#000000" fill-rule="evenodd" fill-opacity="1" /><path clip-path="url(#clip780)" d="M 0 0 M104.279 1004.88 L120.598 1004.88 L120.598 1008.82 L98.6539 1008.82 L98.6539 1004.88 Q101.316 1002.13 105.899 997.499 Q110.506 992.846 111.686 991.504 Q113.932 988.98 114.811 987.244 Q115.714 985.485 115.714 983.795 Q115.714 981.041 113.77 979.305 Q111.848 977.568 108.746 977.568 Q106.547 977.568 104.094 978.332 Q101.663 979.096 98.8854 980.647 L98.8854 975.925 Q101.709 974.791 104.163 974.212 Q106.617 973.633 108.654 973.633 Q114.024 973.633 117.219 976.318 Q120.413 979.004 120.413 983.494 Q120.413 985.624 119.603 987.545 Q118.816 989.443 116.709 992.036 Q116.131 992.707 113.029 995.925 Q109.927 999.119 104.279 1004.88 Z" fill="#000000" fill-rule="evenodd" fill-opacity="1" /><path clip-path="url(#clip780)" d="M 0 0 M64.0708 750.248 Q60.4597 750.248 58.631 753.813 Q56.8254 757.355 56.8254 764.484 Q56.8254 771.591 58.631 775.156 Q60.4597 778.697 64.0708 778.697 Q67.705 778.697 69.5105 775.156 Q71.3392 771.591 71.3392 764.484 Q71.3392 757.355 69.5105 753.813 Q67.705 750.248 64.0708 750.248 M64.0708 746.545 Q69.8809 746.545 72.9365 751.151 Q76.0151 755.734 76.0151 764.484 Q76.0151 773.211 72.9365 777.818 Q69.8809 782.401 64.0708 782.401 Q58.2606 782.401 55.1819 777.818 Q52.1264 773.211 52.1264 764.484 Q52.1264 755.734 55.1819 751.151 Q58.2606 746.545 64.0708 746.545 Z" fill="#000000" fill-rule="evenodd" fill-opacity="1" /><path clip-path="url(#clip780)" d="M 0 0 M84.2327 775.85 L89.1169 775.85 L89.1169 781.73 L84.2327 781.73 L84.2327 775.85 Z" fill="#000000" fill-rule="evenodd" fill-opacity="1" /><path clip-path="url(#clip780)" d="M 0 0 M113.469 763.095 Q116.825 763.813 118.7 766.081 Q120.598 768.35 120.598 771.683 Q120.598 776.799 117.08 779.6 Q113.561 782.401 107.08 782.401 Q104.904 782.401 102.589 781.961 Q100.297 781.544 97.8437 780.688 L97.8437 776.174 Q99.7882 777.308 102.103 777.887 Q104.418 778.466 106.941 778.466 Q111.339 778.466 113.631 776.73 Q115.945 774.993 115.945 771.683 Q115.945 768.628 113.793 766.915 Q111.663 765.179 107.844 765.179 L103.816 765.179 L103.816 761.336 L108.029 761.336 Q111.478 761.336 113.307 759.97 Q115.135 758.582 115.135 755.989 Q115.135 753.327 113.237 751.915 Q111.362 750.48 107.844 750.48 Q105.922 750.48 103.723 750.896 Q101.524 751.313 98.8854 752.193 L98.8854 748.026 Q101.547 747.285 103.862 746.915 Q106.2 746.545 108.26 746.545 Q113.584 746.545 116.686 748.975 Q119.788 751.382 119.788 755.503 Q119.788 758.373 118.145 760.364 Q116.501 762.331 113.469 763.095 Z" fill="#000000" fill-rule="evenodd" fill-opacity="1" /><path clip-path="url(#clip780)" d="M 0 0 M62.9365 523.16 Q59.3254 523.16 57.4967 526.724 Q55.6912 530.266 55.6912 537.396 Q55.6912 544.502 57.4967 548.067 Q59.3254 551.608 62.9365 551.608 Q66.5707 551.608 68.3763 548.067 Q70.205 544.502 70.205 537.396 Q70.205 530.266 68.3763 526.724 Q66.5707 523.16 62.9365 523.16 M62.9365 519.456 Q68.7467 519.456 71.8022 524.062 Q74.8809 528.646 74.8809 537.396 Q74.8809 546.122 71.8022 550.729 Q68.7467 555.312 62.9365 555.312 Q57.1264 555.312 54.0477 550.729 Q50.9921 546.122 50.9921 537.396 Q50.9921 528.646 54.0477 524.062 Q57.1264 519.456 62.9365 519.456 Z" fill="#000000" fill-rule="evenodd" fill-opacity="1" /><path clip-path="url(#clip780)" d="M 0 0 M83.0984 548.761 L87.9827 548.761 L87.9827 554.641 L83.0984 554.641 L83.0984 548.761 Z" fill="#000000" fill-rule="evenodd" fill-opacity="1" /><path clip-path="url(#clip780)" d="M 0 0 M111.015 524.155 L99.2095 542.604 L111.015 542.604 L111.015 524.155 M109.788 520.081 L115.668 520.081 L115.668 542.604 L120.598 542.604 L120.598 546.493 L115.668 546.493 L115.668 554.641 L111.015 554.641 L111.015 546.493 L95.4132 546.493 L95.4132 541.979 L109.788 520.081 Z" fill="#000000" fill-rule="evenodd" fill-opacity="1" /><path clip-path="url(#clip780)" d="M 0 0 M64.418 296.071 Q60.8069 296.071 58.9782 299.636 Q57.1726 303.177 57.1726 310.307 Q57.1726 317.413 58.9782 320.978 Q60.8069 324.52 64.418 324.52 Q68.0522 324.52 69.8578 320.978 Q71.6865 317.413 71.6865 310.307 Q71.6865 303.177 69.8578 299.636 Q68.0522 296.071 64.418 296.071 M64.418 292.367 Q70.2281 292.367 73.2837 296.974 Q76.3624 301.557 76.3624 310.307 Q76.3624 319.034 73.2837 323.64 Q70.2281 328.223 64.418 328.223 Q58.6078 328.223 55.5291 323.64 Q52.4736 319.034 52.4736 310.307 Q52.4736 301.557 55.5291 296.974 Q58.6078 292.367 64.418 292.367 Z" fill="#000000" fill-rule="evenodd" fill-opacity="1" /><path clip-path="url(#clip780)" d="M 0 0 M84.5799 321.673 L89.4641 321.673 L89.4641 327.552 L84.5799 327.552 L84.5799 321.673 Z" fill="#000000" fill-rule="evenodd" fill-opacity="1" /><path clip-path="url(#clip780)" d="M 0 0 M99.6956 292.992 L118.052 292.992 L118.052 296.927 L103.978 296.927 L103.978 305.399 Q104.996 305.052 106.015 304.89 Q107.033 304.705 108.052 304.705 Q113.839 304.705 117.219 307.876 Q120.598 311.048 120.598 316.464 Q120.598 322.043 117.126 325.145 Q113.654 328.223 107.334 328.223 Q105.159 328.223 102.89 327.853 Q100.645 327.483 98.2372 326.742 L98.2372 322.043 Q100.321 323.177 102.543 323.733 Q104.765 324.288 107.242 324.288 Q111.246 324.288 113.584 322.182 Q115.922 320.075 115.922 316.464 Q115.922 312.853 113.584 310.747 Q111.246 308.64 107.242 308.64 Q105.367 308.64 103.492 309.057 Q101.64 309.474 99.6956 310.353 L99.6956 292.992 Z" fill="#000000" fill-rule="evenodd" fill-opacity="1" /><path clip-path="url(#clip780)" d="M 0 0 M63.2606 68.9821 Q59.6495 68.9821 57.8208 72.5469 Q56.0152 76.0885 56.0152 83.2181 Q56.0152 90.3246 57.8208 93.8894 Q59.6495 97.431 63.2606 97.431 Q66.8948 97.431 68.7004 93.8894 Q70.5291 90.3246 70.5291 83.2181 Q70.5291 76.0885 68.7004 72.5469 Q66.8948 68.9821 63.2606 68.9821 M63.2606 65.2784 Q69.0707 65.2784 72.1263 69.8849 Q75.205 74.4682 75.205 83.2181 Q75.205 91.9449 72.1263 96.5514 Q69.0707 101.135 63.2606 101.135 Q57.4504 101.135 54.3717 96.5514 Q51.3162 91.9449 51.3162 83.2181 Q51.3162 74.4682 54.3717 69.8849 Q57.4504 65.2784 63.2606 65.2784 Z" fill="#000000" fill-rule="evenodd" fill-opacity="1" /><path clip-path="url(#clip780)" d="M 0 0 M83.4225 94.5838 L88.3067 94.5838 L88.3067 100.463 L83.4225 100.463 L83.4225 94.5838 Z" fill="#000000" fill-rule="evenodd" fill-opacity="1" /><path clip-path="url(#clip780)" d="M 0 0 M109.071 81.32 Q105.922 81.32 104.071 83.4727 Q102.242 85.6255 102.242 89.3755 Q102.242 93.1023 104.071 95.2782 Q105.922 97.431 109.071 97.431 Q112.219 97.431 114.047 95.2782 Q115.899 93.1023 115.899 89.3755 Q115.899 85.6255 114.047 83.4727 Q112.219 81.32 109.071 81.32 M118.353 66.6673 L118.353 70.9265 Q116.594 70.0932 114.788 69.6534 Q113.006 69.2136 111.246 69.2136 Q106.617 69.2136 104.163 72.3385 Q101.733 75.4635 101.385 81.7829 Q102.751 79.7691 104.811 78.7043 Q106.871 77.6163 109.348 77.6163 Q114.557 77.6163 117.566 80.7876 Q120.598 83.9357 120.598 89.3755 Q120.598 94.6995 117.45 97.9171 Q114.302 101.135 109.071 101.135 Q103.075 101.135 99.9039 96.5514 Q96.7326 91.9449 96.7326 83.2181 Q96.7326 75.0237 100.621 70.1626 Q104.51 65.2784 111.061 65.2784 Q112.82 65.2784 114.603 65.6256 Q116.408 65.9728 118.353 66.6673 Z" fill="#000000" fill-rule="evenodd" fill-opacity="1" /><path clip-path="url(#clip782)" d="
M277.391 1357.2 L277.391 1445.72 L603.153 1445.72 L603.153 1357.2 L277.391 1357.2 L277.391 1357.2  Z
  " fill="#009af9" fill-rule="evenodd" fill-opacity="1"/>
<polyline clip-path="url(#clip782)" style="stroke:#000000; stroke-width:4; stroke-opacity:1; fill:none" points="
  277.391,1357.2 277.391,1445.72 603.153,1445.72 603.153,1357.2 277.391,1357.2 
  "/>
<path clip-path="url(#clip782)" d="
M684.593 629.297 L684.593 1445.72 L1010.36 1445.72 L1010.36 629.297 L684.593 629.297 L684.593 629.297  Z
  " fill="#009af9" fill-rule="evenodd" fill-opacity="1"/>
<polyline clip-path="url(#clip782)" style="stroke:#000000; stroke-width:4; stroke-opacity:1; fill:none" points="
  684.593,629.297 684.593,1445.72 1010.36,1445.72 1010.36,629.297 684.593,629.297 
  "/>
<path clip-path="url(#clip782)" d="
M1091.8 87.9763 L1091.8 1445.72 L1417.56 1445.72 L1417.56 87.9763 L1091.8 87.9763 L1091.8 87.9763  Z
  " fill="#009af9" fill-rule="evenodd" fill-opacity="1"/>
<polyline clip-path="url(#clip782)" style="stroke:#000000; stroke-width:4; stroke-opacity:1; fill:none" points="
  1091.8,87.9763 1091.8,1445.72 1417.56,1445.72 1417.56,87.9763 1091.8,87.9763 
  "/>
<path clip-path="url(#clip782)" d="
M1499 1445.04 L1499 1445.72 L1824.76 1445.72 L1824.76 1445.04 L1499 1445.04 L1499 1445.04  Z
  " fill="#009af9" fill-rule="evenodd" fill-opacity="1"/>
<polyline clip-path="url(#clip782)" style="stroke:#000000; stroke-width:4; stroke-opacity:1; fill:none" points="
  1499,1445.04 1499,1445.72 1824.76,1445.72 1824.76,1445.04 1499,1445.04 
  "/>
<path clip-path="url(#clip782)" d="
M1906.2 1438.17 L1906.2 1445.72 L2231.96 1445.72 L2231.96 1438.17 L1906.2 1438.17 L1906.2 1438.17  Z
  " fill="#009af9" fill-rule="evenodd" fill-opacity="1"/>
<polyline clip-path="url(#clip782)" style="stroke:#000000; stroke-width:4; stroke-opacity:1; fill:none" points="
  1906.2,1438.17 1906.2,1445.72 2231.96,1445.72 2231.96,1438.17 1906.2,1438.17 
  "/>
<path clip-path="url(#clip780)" d="
M1983.1 216.178 L2279.55 216.178 L2279.55 95.2176 L1983.1 95.2176  Z
  " fill="#ffffff" fill-rule="evenodd" fill-opacity="1"/>
<polyline clip-path="url(#clip780)" style="stroke:#000000; stroke-width:4; stroke-opacity:1; fill:none" points="
  1983.1,216.178 2279.55,216.178 2279.55,95.2176 1983.1,95.2176 1983.1,216.178 
  "/>
<path clip-path="url(#clip780)" d="
M2007.5 179.89 L2153.92 179.89 L2153.92 131.506 L2007.5 131.506 L2007.5 179.89  Z
  " fill="#009af9" fill-rule="evenodd" fill-opacity="1"/>
<polyline clip-path="url(#clip780)" style="stroke:#000000; stroke-width:4; stroke-opacity:1; fill:none" points="
  2007.5,179.89 2153.92,179.89 2153.92,131.506 2007.5,131.506 2007.5,179.89 
  "/>
<path clip-path="url(#clip780)" d="M 0 0 M2192.16 175.385 Q2190.35 180.015 2188.64 181.427 Q2186.93 182.839 2184.06 182.839 L2180.65 182.839 L2180.65 179.274 L2183.15 179.274 Q2184.91 179.274 2185.89 178.44 Q2186.86 177.607 2188.04 174.505 L2188.8 172.561 L2178.32 147.052 L2182.83 147.052 L2190.93 167.329 L2199.03 147.052 L2203.55 147.052 L2192.16 175.385 Z" fill="#000000" fill-rule="evenodd" fill-opacity="1" /><path clip-path="url(#clip780)" d="M 0 0 M2210.84 169.042 L2218.48 169.042 L2218.48 142.677 L2210.17 144.343 L2210.17 140.084 L2218.43 138.418 L2223.11 138.418 L2223.11 169.042 L2230.75 169.042 L2230.75 172.978 L2210.84 172.978 L2210.84 169.042 Z" fill="#000000" fill-rule="evenodd" fill-opacity="1" /></svg>
