<?xml version="1.0" encoding="utf-8"?>
<svg xmlns="http://www.w3.org/2000/svg" xmlns:xlink="http://www.w3.org/1999/xlink" width="600" height="400" viewBox="0 0 2400 1600">
<defs>
  <clipPath id="clip740">
    <rect x="0" y="0" width="2400" height="1600"/>
  </clipPath>
</defs>
<path clip-path="url(#clip740)" d="
M0 1600 L2400 1600 L2400 0 L0 0  Z
  " fill="#ffffff" fill-rule="evenodd" fill-opacity="1"/>
<defs>
  <clipPath id="clip741">
    <rect x="480" y="0" width="1681" height="1600"/>
  </clipPath>
</defs>
<path clip-path="url(#clip740)" d="
M156.598 1486.45 L2352.76 1486.45 L2352.76 47.2441 L156.598 47.2441  Z
  " fill="#ffffff" fill-rule="evenodd" fill-opacity="1"/>
<defs>
  <clipPath id="clip742">
    <rect x="156" y="47" width="2197" height="1440"/>
  </clipPath>
</defs>
<polyline clip-path="url(#clip742)" style="stroke:#000000; stroke-width:2; stroke-opacity:0.1; fill:none" points="
  440.272,1486.45 440.272,47.2441 
  "/>
<polyline clip-path="url(#clip742)" style="stroke:#000000; stroke-width:2; stroke-opacity:0.1; fill:none" points="
  847.474,1486.45 847.474,47.2441 
  "/>
<polyline clip-path="url(#clip742)" style="stroke:#000000; stroke-width:2; stroke-opacity:0.1; fill:none" points="
  1254.68,1486.45 1254.68,47.2441 
  "/>
<polyline clip-path="url(#clip742)" style="stroke:#000000; stroke-width:2; stroke-opacity:0.1; fill:none" points="
  1661.88,1486.45 1661.88,47.2441 
  "/>
<polyline clip-path="url(#clip742)" style="stroke:#000000; stroke-width:2; stroke-opacity:0.1; fill:none" points="
  2069.08,1486.45 2069.08,47.2441 
  "/>
<polyline clip-path="url(#clip740)" style="stroke:#000000; stroke-width:4; stroke-opacity:1; fill:none" points="
  156.598,1486.45 2352.76,1486.45 
  "/>
<polyline clip-path="url(#clip740)" style="stroke:#000000; stroke-width:4; stroke-opacity:1; fill:none" points="
  440.272,1486.45 440.272,1469.18 
  "/>
<polyline clip-path="url(#clip740)" style="stroke:#000000; stroke-width:4; stroke-opacity:1; fill:none" points="
  847.474,1486.45 847.474,1469.18 
  "/>
<polyline clip-path="url(#clip740)" style="stroke:#000000; stroke-width:4; stroke-opacity:1; fill:none" points="
  1254.68,1486.45 1254.68,1469.18 
  "/>
<polyline clip-path="url(#clip740)" style="stroke:#000000; stroke-width:4; stroke-opacity:1; fill:none" points="
  1661.88,1486.45 1661.88,1469.18 
  "/>
<polyline clip-path="url(#clip740)" style="stroke:#000000; stroke-width:4; stroke-opacity:1; fill:none" points="
  2069.08,1486.45 2069.08,1469.18 
  "/>
<path clip-path="url(#clip740)" d="M 0 0 M430.654 1543.18 L438.293 1543.18 L438.293 1516.82 L429.983 1518.49 L429.983 1514.23 L438.246 1512.56 L442.922 1512.56 L442.922 1543.18 L450.561 1543.18 L450.561 1547.12 L430.654 1547.12 L430.654 1543.18 Z" fill="#000000" fill-rule="evenodd" fill-opacity="1" /><path clip-path="url(#clip740)" d="M 0 0 M842.127 1543.18 L858.447 1543.18 L858.447 1547.12 L836.502 1547.12 L836.502 1543.18 Q839.164 1540.43 843.748 1535.8 Q848.354 1531.15 849.535 1529.81 Q851.78 1527.28 852.66 1525.55 Q853.562 1523.79 853.562 1522.1 Q853.562 1519.34 851.618 1517.61 Q849.697 1515.87 846.595 1515.87 Q844.396 1515.87 841.942 1516.63 Q839.512 1517.4 836.734 1518.95 L836.734 1514.23 Q839.558 1513.09 842.012 1512.51 Q844.465 1511.93 846.502 1511.93 Q851.873 1511.93 855.067 1514.62 Q858.261 1517.31 858.261 1521.8 Q858.261 1523.93 857.451 1525.85 Q856.664 1527.74 854.558 1530.34 Q853.979 1531.01 850.877 1534.23 Q847.775 1537.42 842.127 1543.18 Z" fill="#000000" fill-rule="evenodd" fill-opacity="1" /><path clip-path="url(#clip740)" d="M 0 0 M1258.92 1528.49 Q1262.28 1529.2 1264.16 1531.47 Q1266.05 1533.74 1266.05 1537.07 Q1266.05 1542.19 1262.54 1544.99 Q1259.02 1547.79 1252.54 1547.79 Q1250.36 1547.79 1248.05 1547.35 Q1245.75 1546.93 1243.3 1546.08 L1243.3 1541.56 Q1245.24 1542.7 1247.56 1543.28 Q1249.87 1543.86 1252.4 1543.86 Q1256.8 1543.86 1259.09 1542.12 Q1261.4 1540.38 1261.4 1537.07 Q1261.4 1534.02 1259.25 1532.31 Q1257.12 1530.57 1253.3 1530.57 L1249.27 1530.57 L1249.27 1526.73 L1253.48 1526.73 Q1256.93 1526.73 1258.76 1525.36 Q1260.59 1523.97 1260.59 1521.38 Q1260.59 1518.72 1258.69 1517.31 Q1256.82 1515.87 1253.3 1515.87 Q1251.38 1515.87 1249.18 1516.29 Q1246.98 1516.7 1244.34 1517.58 L1244.34 1513.42 Q1247 1512.68 1249.32 1512.31 Q1251.66 1511.93 1253.72 1511.93 Q1259.04 1511.93 1262.14 1514.37 Q1265.24 1516.77 1265.24 1520.89 Q1265.24 1523.76 1263.6 1525.75 Q1261.96 1527.72 1258.92 1528.49 Z" fill="#000000" fill-rule="evenodd" fill-opacity="1" /><path clip-path="url(#clip740)" d="M 0 0 M1664.89 1516.63 L1653.08 1535.08 L1664.89 1535.08 L1664.89 1516.63 M1663.66 1512.56 L1669.54 1512.56 L1669.54 1535.08 L1674.47 1535.08 L1674.47 1538.97 L1669.54 1538.97 L1669.54 1547.12 L1664.89 1547.12 L1664.89 1538.97 L1649.29 1538.97 L1649.29 1534.46 L1663.66 1512.56 Z" fill="#000000" fill-rule="evenodd" fill-opacity="1" /><path clip-path="url(#clip740)" d="M 0 0 M2059.36 1512.56 L2077.72 1512.56 L2077.72 1516.5 L2063.64 1516.5 L2063.64 1524.97 Q2064.66 1524.62 2065.68 1524.46 Q2066.7 1524.27 2067.72 1524.27 Q2073.5 1524.27 2076.88 1527.44 Q2080.26 1530.62 2080.26 1536.03 Q2080.26 1541.61 2076.79 1544.71 Q2073.32 1547.79 2067 1547.79 Q2064.82 1547.79 2062.55 1547.42 Q2060.31 1547.05 2057.9 1546.31 L2057.9 1541.61 Q2059.99 1542.74 2062.21 1543.3 Q2064.43 1543.86 2066.91 1543.86 Q2070.91 1543.86 2073.25 1541.75 Q2075.59 1539.64 2075.59 1536.03 Q2075.59 1532.42 2073.25 1530.31 Q2070.91 1528.21 2066.91 1528.21 Q2065.03 1528.21 2063.16 1528.62 Q2061.3 1529.04 2059.36 1529.92 L2059.36 1512.56 Z" fill="#000000" fill-rule="evenodd" fill-opacity="1" /><polyline clip-path="url(#clip742)" style="stroke:#000000; stroke-width:2; stroke-opacity:0.1; fill:none" points="
  156.598,1445.72 2352.76,1445.72 
  "/>
<polyline clip-path="url(#clip742)" style="stroke:#000000; stroke-width:2; stroke-opacity:0.1; fill:none" points="
  156.598,1198.33 2352.76,1198.33 
  "/>
<polyline clip-path="url(#clip742)" style="stroke:#000000; stroke-width:2; stroke-opacity:0.1; fill:none" points="
  156.598,950.937 2352.76,950.937 
  "/>
<polyline clip-path="url(#clip742)" style="stroke:#000000; stroke-width:2; stroke-opacity:0.1; fill:none" points="
  156.598,703.548 2352.76,703.548 
  "/>
<polyline clip-path="url(#clip742)" style="stroke:#000000; stroke-width:2; stroke-opacity:0.1; fill:none" points="
  156.598,456.158 2352.76,456.158 
  "/>
<polyline clip-path="url(#clip742)" style="stroke:#000000; stroke-width:2; stroke-opacity:0.1; fill:none" points="
  156.598,208.769 2352.76,208.769 
  "/>
<polyline clip-path="url(#clip740)" style="stroke:#000000; stroke-width:4; stroke-opacity:1; fill:none" points="
  156.598,1486.45 156.598,47.2441 
  "/>
<polyline clip-path="url(#clip740)" style="stroke:#000000; stroke-width:4; stroke-opacity:1; fill:none" points="
  156.598,1445.72 182.952,1445.72 
  "/>
<polyline clip-path="url(#clip740)" style="stroke:#000000; stroke-width:4; stroke-opacity:1; fill:none" points="
  156.598,1198.33 182.952,1198.33 
  "/>
<polyline clip-path="url(#clip740)" style="stroke:#000000; stroke-width:4; stroke-opacity:1; fill:none" points="
  156.598,950.937 182.952,950.937 
  "/>
<polyline clip-path="url(#clip740)" style="stroke:#000000; stroke-width:4; stroke-opacity:1; fill:none" points="
  156.598,703.548 182.952,703.548 
  "/>
<polyline clip-path="url(#clip740)" style="stroke:#000000; stroke-width:4; stroke-opacity:1; fill:none" points="
  156.598,456.158 182.952,456.158 
  "/>
<polyline clip-path="url(#clip740)" style="stroke:#000000; stroke-width:4; stroke-opacity:1; fill:none" points="
  156.598,208.769 182.952,208.769 
  "/>
<path clip-path="url(#clip740)" d="M 0 0 M63.4226 1431.51 Q59.8115 1431.51 57.9828 1435.08 Q56.1773 1438.62 56.1773 1445.75 Q56.1773 1452.86 57.9828 1456.42 Q59.8115 1459.96 63.4226 1459.96 Q67.0569 1459.96 68.8624 1456.42 Q70.6911 1452.86 70.6911 1445.75 Q70.6911 1438.62 68.8624 1435.08 Q67.0569 1431.51 63.4226 1431.51 M63.4226 1427.81 Q69.2328 1427.81 72.2883 1432.42 Q75.367 1437 75.367 1445.75 Q75.367 1454.48 72.2883 1459.08 Q69.2328 1463.67 63.4226 1463.67 Q57.6125 1463.67 54.5338 1459.08 Q51.4782 1454.48 51.4782 1445.75 Q51.4782 1437 54.5338 1432.42 Q57.6125 1427.81 63.4226 1427.81 Z" fill="#000000" fill-rule="evenodd" fill-opacity="1" /><path clip-path="url(#clip740)" d="M 0 0 M83.5845 1457.12 L88.4688 1457.12 L88.4688 1463 L83.5845 1463 L83.5845 1457.12 Z" fill="#000000" fill-rule="evenodd" fill-opacity="1" /><path clip-path="url(#clip740)" d="M 0 0 M108.654 1431.51 Q105.043 1431.51 103.214 1435.08 Q101.409 1438.62 101.409 1445.75 Q101.409 1452.86 103.214 1456.42 Q105.043 1459.96 108.654 1459.96 Q112.288 1459.96 114.094 1456.42 Q115.922 1452.86 115.922 1445.75 Q115.922 1438.62 114.094 1435.08 Q112.288 1431.51 108.654 1431.51 M108.654 1427.81 Q114.464 1427.81 117.52 1432.42 Q120.598 1437 120.598 1445.75 Q120.598 1454.48 117.52 1459.08 Q114.464 1463.67 108.654 1463.67 Q102.844 1463.67 99.765 1459.08 Q96.7095 1454.48 96.7095 1445.75 Q96.7095 1437 99.765 1432.42 Q102.844 1427.81 108.654 1427.81 Z" fill="#000000" fill-rule="evenodd" fill-opacity="1" /><path clip-path="url(#clip740)" d="M 0 0 M64.6495 1184.13 Q61.0384 1184.13 59.2097 1187.69 Q57.4041 1191.23 57.4041 1198.36 Q57.4041 1205.47 59.2097 1209.03 Q61.0384 1212.57 64.6495 1212.57 Q68.2837 1212.57 70.0892 1209.03 Q71.9179 1205.47 71.9179 1198.36 Q71.9179 1191.23 70.0892 1187.69 Q68.2837 1184.13 64.6495 1184.13 M64.6495 1180.42 Q70.4596 1180.42 73.5152 1185.03 Q76.5938 1189.61 76.5938 1198.36 Q76.5938 1207.09 73.5152 1211.69 Q70.4596 1216.28 64.6495 1216.28 Q58.8393 1216.28 55.7606 1211.69 Q52.7051 1207.09 52.7051 1198.36 Q52.7051 1189.61 55.7606 1185.03 Q58.8393 1180.42 64.6495 1180.42 Z" fill="#000000" fill-rule="evenodd" fill-opacity="1" /><path clip-path="url(#clip740)" d="M 0 0 M84.8114 1209.73 L89.6956 1209.73 L89.6956 1215.61 L84.8114 1215.61 L84.8114 1209.73 Z" fill="#000000" fill-rule="evenodd" fill-opacity="1" /><path clip-path="url(#clip740)" d="M 0 0 M100.691 1211.67 L108.33 1211.67 L108.33 1185.31 L100.02 1186.97 L100.02 1182.71 L108.283 1181.05 L112.959 1181.05 L112.959 1211.67 L120.598 1211.67 L120.598 1215.61 L100.691 1215.61 L100.691 1211.67 Z" fill="#000000" fill-rule="evenodd" fill-opacity="1" /><path clip-path="url(#clip740)" d="M 0 0 M65.0198 936.736 Q61.4087 936.736 59.58 940.3 Q57.7745 943.842 57.7745 950.972 Q57.7745 958.078 59.58 961.643 Q61.4087 965.185 65.0198 965.185 Q68.6541 965.185 70.4596 961.643 Q72.2883 958.078 72.2883 950.972 Q72.2883 943.842 70.4596 940.3 Q68.6541 936.736 65.0198 936.736 M65.0198 933.032 Q70.83 933.032 73.8855 937.638 Q76.9642 942.222 76.9642 950.972 Q76.9642 959.699 73.8855 964.305 Q70.83 968.888 65.0198 968.888 Q59.2097 968.888 56.131 964.305 Q53.0754 959.699 53.0754 950.972 Q53.0754 942.222 56.131 937.638 Q59.2097 933.032 65.0198 933.032 Z" fill="#000000" fill-rule="evenodd" fill-opacity="1" /><path clip-path="url(#clip740)" d="M 0 0 M85.1818 962.337 L90.066 962.337 L90.066 968.217 L85.1818 968.217 L85.1818 962.337 Z" fill="#000000" fill-rule="evenodd" fill-opacity="1" /><path clip-path="url(#clip740)" d="M 0 0 M104.279 964.282 L120.598 964.282 L120.598 968.217 L98.6539 968.217 L98.6539 964.282 Q101.316 961.527 105.899 956.898 Q110.506 952.245 111.686 950.902 Q113.932 948.379 114.811 946.643 Q115.714 944.884 115.714 943.194 Q115.714 940.439 113.77 938.703 Q111.848 936.967 108.746 936.967 Q106.547 936.967 104.094 937.731 Q101.663 938.495 98.8854 940.046 L98.8854 935.324 Q101.709 934.189 104.163 933.611 Q106.617 933.032 108.654 933.032 Q114.024 933.032 117.219 935.717 Q120.413 938.402 120.413 942.893 Q120.413 945.023 119.603 946.944 Q118.816 948.842 116.709 951.435 Q116.131 952.106 113.029 955.324 Q109.927 958.518 104.279 964.282 Z" fill="#000000" fill-rule="evenodd" fill-opacity="1" /><path clip-path="url(#clip740)" d="M 0 0 M64.0708 689.346 Q60.4597 689.346 58.631 692.911 Q56.8254 696.453 56.8254 703.582 Q56.8254 710.689 58.631 714.254 Q60.4597 717.795 64.0708 717.795 Q67.705 717.795 69.5105 714.254 Q71.3392 710.689 71.3392 703.582 Q71.3392 696.453 69.5105 692.911 Q67.705 689.346 64.0708 689.346 M64.0708 685.643 Q69.8809 685.643 72.9365 690.249 Q76.0151 694.832 76.0151 703.582 Q76.0151 712.309 72.9365 716.916 Q69.8809 721.499 64.0708 721.499 Q58.2606 721.499 55.1819 716.916 Q52.1264 712.309 52.1264 703.582 Q52.1264 694.832 55.1819 690.249 Q58.2606 685.643 64.0708 685.643 Z" fill="#000000" fill-rule="evenodd" fill-opacity="1" /><path clip-path="url(#clip740)" d="M 0 0 M84.2327 714.948 L89.1169 714.948 L89.1169 720.828 L84.2327 720.828 L84.2327 714.948 Z" fill="#000000" fill-rule="evenodd" fill-opacity="1" /><path clip-path="url(#clip740)" d="M 0 0 M113.469 702.194 Q116.825 702.911 118.7 705.18 Q120.598 707.448 120.598 710.781 Q120.598 715.897 117.08 718.698 Q113.561 721.499 107.08 721.499 Q104.904 721.499 102.589 721.059 Q100.297 720.642 97.8437 719.786 L97.8437 715.272 Q99.7882 716.406 102.103 716.985 Q104.418 717.564 106.941 717.564 Q111.339 717.564 113.631 715.828 Q115.945 714.092 115.945 710.781 Q115.945 707.726 113.793 706.013 Q111.663 704.277 107.844 704.277 L103.816 704.277 L103.816 700.434 L108.029 700.434 Q111.478 700.434 113.307 699.069 Q115.135 697.68 115.135 695.087 Q115.135 692.425 113.237 691.013 Q111.362 689.578 107.844 689.578 Q105.922 689.578 103.723 689.995 Q101.524 690.411 98.8854 691.291 L98.8854 687.124 Q101.547 686.383 103.862 686.013 Q106.2 685.643 108.26 685.643 Q113.584 685.643 116.686 688.073 Q119.788 690.481 119.788 694.601 Q119.788 697.471 118.145 699.462 Q116.501 701.43 113.469 702.194 Z" fill="#000000" fill-rule="evenodd" fill-opacity="1" /><path clip-path="url(#clip740)" d="M 0 0 M62.9365 441.957 Q59.3254 441.957 57.4967 445.522 Q55.6912 449.063 55.6912 456.193 Q55.6912 463.3 57.4967 466.864 Q59.3254 470.406 62.9365 470.406 Q66.5707 470.406 68.3763 466.864 Q70.205 463.3 70.205 456.193 Q70.205 449.063 68.3763 445.522 Q66.5707 441.957 62.9365 441.957 M62.9365 438.253 Q68.7467 438.253 71.8022 442.86 Q74.8809 447.443 74.8809 456.193 Q74.8809 464.92 71.8022 469.526 Q68.7467 474.11 62.9365 474.11 Q57.1264 474.11 54.0477 469.526 Q50.9921 464.92 50.9921 456.193 Q50.9921 447.443 54.0477 442.86 Q57.1264 438.253 62.9365 438.253 Z" fill="#000000" fill-rule="evenodd" fill-opacity="1" /><path clip-path="url(#clip740)" d="M 0 0 M83.0984 467.559 L87.9827 467.559 L87.9827 473.438 L83.0984 473.438 L83.0984 467.559 Z" fill="#000000" fill-rule="evenodd" fill-opacity="1" /><path clip-path="url(#clip740)" d="M 0 0 M111.015 442.952 L99.2095 461.401 L111.015 461.401 L111.015 442.952 M109.788 438.878 L115.668 438.878 L115.668 461.401 L120.598 461.401 L120.598 465.29 L115.668 465.29 L115.668 473.438 L111.015 473.438 L111.015 465.29 L95.4132 465.29 L95.4132 460.776 L109.788 438.878 Z" fill="#000000" fill-rule="evenodd" fill-opacity="1" /><path clip-path="url(#clip740)" d="M 0 0 M64.418 194.568 Q60.8069 194.568 58.9782 198.132 Q57.1726 201.674 57.1726 208.804 Q57.1726 215.91 58.9782 219.475 Q60.8069 223.017 64.418 223.017 Q68.0522 223.017 69.8578 219.475 Q71.6865 215.91 71.6865 208.804 Q71.6865 201.674 69.8578 198.132 Q68.0522 194.568 64.418 194.568 M64.418 190.864 Q70.2281 190.864 73.2837 195.47 Q76.3624 200.054 76.3624 208.804 Q76.3624 217.531 73.2837 222.137 Q70.2281 226.72 64.418 226.72 Q58.6078 226.72 55.5291 222.137 Q52.4736 217.531 52.4736 208.804 Q52.4736 200.054 55.5291 195.47 Q58.6078 190.864 64.418 190.864 Z" fill="#000000" fill-rule="evenodd" fill-opacity="1" /><path clip-path="url(#clip740)" d="M 0 0 M84.5799 220.169 L89.4641 220.169 L89.4641 226.049 L84.5799 226.049 L84.5799 220.169 Z" fill="#000000" fill-rule="evenodd" fill-opacity="1" /><path clip-path="url(#clip740)" d="M 0 0 M99.6956 191.489 L118.052 191.489 L118.052 195.424 L103.978 195.424 L103.978 203.896 Q104.996 203.549 106.015 203.387 Q107.033 203.202 108.052 203.202 Q113.839 203.202 117.219 206.373 Q120.598 209.544 120.598 214.961 Q120.598 220.54 117.126 223.642 Q113.654 226.72 107.334 226.72 Q105.159 226.72 102.89 226.35 Q100.645 225.98 98.2372 225.239 L98.2372 220.54 Q100.321 221.674 102.543 222.23 Q104.765 222.785 107.242 222.785 Q111.246 222.785 113.584 220.679 Q115.922 218.572 115.922 214.961 Q115.922 211.35 113.584 209.244 Q111.246 207.137 107.242 207.137 Q105.367 207.137 103.492 207.554 Q101.64 207.97 99.6956 208.85 L99.6956 191.489 Z" fill="#000000" fill-rule="evenodd" fill-opacity="1" /><path clip-path="url(#clip742)" d="
M277.391 1377.96 L277.391 1445.72 L603.153 1445.72 L603.153 1377.96 L277.391 1377.96 L277.391 1377.96  Z
  " fill="#009af9" fill-rule="evenodd" fill-opacity="1"/>
<polyline clip-path="url(#clip742)" style="stroke:#000000; stroke-width:4; stroke-opacity:1; fill:none" points="
  277.391,1377.96 277.391,1445.72 603.153,1445.72 603.153,1377.96 277.391,1377.96 
  "/>
<path clip-path="url(#clip742)" d="
M684.593 1445.47 L684.593 1445.72 L1010.36 1445.72 L1010.36 1445.47 L684.593 1445.47 L684.593 1445.47  Z
  " fill="#009af9" fill-rule="evenodd" fill-opacity="1"/>
<polyline clip-path="url(#clip742)" style="stroke:#000000; stroke-width:4; stroke-opacity:1; fill:none" points="
  684.593,1445.47 684.593,1445.72 1010.36,1445.72 1010.36,1445.47 684.593,1445.47 
  "/>
<path clip-path="url(#clip742)" d="
M1091.8 87.9763 L1091.8 1445.72 L1417.56 1445.72 L1417.56 87.9763 L1091.8 87.9763 L1091.8 87.9763  Z
  " fill="#009af9" fill-rule="evenodd" fill-opacity="1"/>
<polyline clip-path="url(#clip742)" style="stroke:#000000; stroke-width:4; stroke-opacity:1; fill:none" points="
  1091.8,87.9763 1091.8,1445.72 1417.56,1445.72 1417.56,87.9763 1091.8,87.9763 
  "/>
<path clip-path="url(#clip742)" d="
M1499 1434.18 L1499 1445.72 L1824.76 1445.72 L1824.76 1434.18 L1499 1434.18 L1499 1434.18  Z
  " fill="#009af9" fill-rule="evenodd" fill-opacity="1"/>
<polyline clip-path="url(#clip742)" style="stroke:#000000; stroke-width:4; stroke-opacity:1; fill:none" points="
  1499,1434.18 1499,1445.72 1824.76,1445.72 1824.76,1434.18 1499,1434.18 
  "/>
<path clip-path="url(#clip742)" d="
M1906.2 409.094 L1906.2 1445.72 L2231.96 1445.72 L2231.96 409.094 L1906.2 409.094 L1906.2 409.094  Z
  " fill="#009af9" fill-rule="evenodd" fill-opacity="1"/>
<polyline clip-path="url(#clip742)" style="stroke:#000000; stroke-width:4; stroke-opacity:1; fill:none" points="
  1906.2,409.094 1906.2,1445.72 2231.96,1445.72 2231.96,409.094 1906.2,409.094 
  "/>
<path clip-path="url(#clip740)" d="
M1983.1 216.178 L2279.55 216.178 L2279.55 95.2176 L1983.1 95.2176  Z
  " fill="#ffffff" fill-rule="evenodd" fill-opacity="1"/>
<polyline clip-path="url(#clip740)" style="stroke:#000000; stroke-width:4; stroke-opacity:1; fill:none" points="
  1983.1,216.178 2279.55,216.178 2279.55,95.2176 1983.1,95.2176 1983.1,216.178 
  "/>
<path clip-path="url(#clip740)" d="
M2007.5 179.89 L2153.92 179.89 L2153.92 131.506 L2007.5 131.506 L2007.5 179.89  Z
  " fill="#009af9" fill-rule="evenodd" fill-opacity="1"/>
<polyline clip-path="url(#clip740)" style="stroke:#000000; stroke-width:4; stroke-opacity:1; fill:none" points="
  2007.5,179.89 2153.92,179.89 2153.92,131.506 2007.5,131.506 2007.5,179.89 
  "/>
<path clip-path="url(#clip740)" d="M 0 0 M2192.16 175.385 Q2190.35 180.015 2188.64 181.427 Q2186.93 182.839 2184.06 182.839 L2180.65 182.839 L2180.65 179.274 L2183.15 179.274 Q2184.91 179.274 2185.89 178.44 Q2186.86 177.607 2188.04 174.505 L2188.8 172.561 L2178.32 147.052 L2182.83 147.052 L2190.93 167.329 L2199.03 147.052 L2203.55 147.052 L2192.16 175.385 Z" fill="#000000" fill-rule="evenodd" fill-opacity="1" /><path clip-path="url(#clip740)" d="M 0 0 M2210.84 169.042 L2218.48 169.042 L2218.48 142.677 L2210.17 144.343 L2210.17 140.084 L2218.43 138.418 L2223.11 138.418 L2223.11 169.042 L2230.75 169.042 L2230.75 172.978 L2210.84 172.978 L2210.84 169.042 Z" fill="#000000" fill-rule="evenodd" fill-opacity="1" /></svg>
