<?xml version="1.0" encoding="utf-8"?>
<svg xmlns="http://www.w3.org/2000/svg" xmlns:xlink="http://www.w3.org/1999/xlink" width="600" height="400" viewBox="0 0 2400 1600">
<defs>
  <clipPath id="clip820">
    <rect x="0" y="0" width="2400" height="1600"/>
  </clipPath>
</defs>
<path clip-path="url(#clip820)" d="
M0 1600 L2400 1600 L2400 0 L0 0  Z
  " fill="#ffffff" fill-rule="evenodd" fill-opacity="1"/>
<defs>
  <clipPath id="clip821">
    <rect x="480" y="0" width="1681" height="1600"/>
  </clipPath>
</defs>
<path clip-path="url(#clip820)" d="
M156.598 1486.45 L2352.76 1486.45 L2352.76 47.2441 L156.598 47.2441  Z
  " fill="#ffffff" fill-rule="evenodd" fill-opacity="1"/>
<defs>
  <clipPath id="clip822">
    <rect x="156" y="47" width="2197" height="1440"/>
  </clipPath>
</defs>
<polyline clip-path="url(#clip822)" style="stroke:#000000; stroke-width:2; stroke-opacity:0.1; fill:none" points="
  218.754,1486.45 218.754,47.2441 
  "/>
<polyline clip-path="url(#clip822)" style="stroke:#000000; stroke-width:2; stroke-opacity:0.1; fill:none" points="
  736.715,1486.45 736.715,47.2441 
  "/>
<polyline clip-path="url(#clip822)" style="stroke:#000000; stroke-width:2; stroke-opacity:0.1; fill:none" points="
  1254.68,1486.45 1254.68,47.2441 
  "/>
<polyline clip-path="url(#clip822)" style="stroke:#000000; stroke-width:2; stroke-opacity:0.1; fill:none" points="
  1772.64,1486.45 1772.64,47.2441 
  "/>
<polyline clip-path="url(#clip822)" style="stroke:#000000; stroke-width:2; stroke-opacity:0.1; fill:none" points="
  2290.6,1486.45 2290.6,47.2441 
  "/>
<polyline clip-path="url(#clip820)" style="stroke:#000000; stroke-width:4; stroke-opacity:1; fill:none" points="
  156.598,1486.45 2352.76,1486.45 
  "/>
<polyline clip-path="url(#clip820)" style="stroke:#000000; stroke-width:4; stroke-opacity:1; fill:none" points="
  218.754,1486.45 218.754,1469.18 
  "/>
<polyline clip-path="url(#clip820)" style="stroke:#000000; stroke-width:4; stroke-opacity:1; fill:none" points="
  736.715,1486.45 736.715,1469.18 
  "/>
<polyline clip-path="url(#clip820)" style="stroke:#000000; stroke-width:4; stroke-opacity:1; fill:none" points="
  1254.68,1486.45 1254.68,1469.18 
  "/>
<polyline clip-path="url(#clip820)" style="stroke:#000000; stroke-width:4; stroke-opacity:1; fill:none" points="
  1772.64,1486.45 1772.64,1469.18 
  "/>
<polyline clip-path="url(#clip820)" style="stroke:#000000; stroke-width:4; stroke-opacity:1; fill:none" points="
  2290.6,1486.45 2290.6,1469.18 
  "/>
<path clip-path="url(#clip820)" d="M 0 0 M181.057 1515.64 Q177.446 1515.64 175.617 1519.2 Q173.812 1522.75 173.812 1529.87 Q173.812 1536.98 175.617 1540.55 Q177.446 1544.09 181.057 1544.09 Q184.691 1544.09 186.497 1540.55 Q188.326 1536.98 188.326 1529.87 Q188.326 1522.75 186.497 1519.2 Q184.691 1515.64 181.057 1515.64 M181.057 1511.93 Q186.867 1511.93 189.923 1516.54 Q193.001 1521.12 193.001 1529.87 Q193.001 1538.6 189.923 1543.21 Q186.867 1547.79 181.057 1547.79 Q175.247 1547.79 172.168 1543.21 Q169.113 1538.6 169.113 1529.87 Q169.113 1521.12 172.168 1516.54 Q175.247 1511.93 181.057 1511.93 Z" fill="#000000" fill-rule="evenodd" fill-opacity="1" /><path clip-path="url(#clip820)" d="M 0 0 M201.219 1541.24 L206.103 1541.24 L206.103 1547.12 L201.219 1547.12 L201.219 1541.24 Z" fill="#000000" fill-rule="evenodd" fill-opacity="1" /><path clip-path="url(#clip820)" d="M 0 0 M226.288 1515.64 Q222.677 1515.64 220.849 1519.2 Q219.043 1522.75 219.043 1529.87 Q219.043 1536.98 220.849 1540.55 Q222.677 1544.09 226.288 1544.09 Q229.923 1544.09 231.728 1540.55 Q233.557 1536.98 233.557 1529.87 Q233.557 1522.75 231.728 1519.2 Q229.923 1515.64 226.288 1515.64 M226.288 1511.93 Q232.098 1511.93 235.154 1516.54 Q238.233 1521.12 238.233 1529.87 Q238.233 1538.6 235.154 1543.21 Q232.098 1547.79 226.288 1547.79 Q220.478 1547.79 217.399 1543.21 Q214.344 1538.6 214.344 1529.87 Q214.344 1521.12 217.399 1516.54 Q220.478 1511.93 226.288 1511.93 Z" fill="#000000" fill-rule="evenodd" fill-opacity="1" /><path clip-path="url(#clip820)" d="M 0 0 M256.45 1515.64 Q252.839 1515.64 251.01 1519.2 Q249.205 1522.75 249.205 1529.87 Q249.205 1536.98 251.01 1540.55 Q252.839 1544.09 256.45 1544.09 Q260.084 1544.09 261.89 1540.55 Q263.719 1536.98 263.719 1529.87 Q263.719 1522.75 261.89 1519.2 Q260.084 1515.64 256.45 1515.64 M256.45 1511.93 Q262.26 1511.93 265.316 1516.54 Q268.395 1521.12 268.395 1529.87 Q268.395 1538.6 265.316 1543.21 Q262.26 1547.79 256.45 1547.79 Q250.64 1547.79 247.561 1543.21 Q244.506 1538.6 244.506 1529.87 Q244.506 1521.12 247.561 1516.54 Q250.64 1511.93 256.45 1511.93 Z" fill="#000000" fill-rule="evenodd" fill-opacity="1" /><path clip-path="url(#clip820)" d="M 0 0 M699.516 1515.64 Q695.905 1515.64 694.077 1519.2 Q692.271 1522.75 692.271 1529.87 Q692.271 1536.98 694.077 1540.55 Q695.905 1544.09 699.516 1544.09 Q703.151 1544.09 704.956 1540.55 Q706.785 1536.98 706.785 1529.87 Q706.785 1522.75 704.956 1519.2 Q703.151 1515.64 699.516 1515.64 M699.516 1511.93 Q705.327 1511.93 708.382 1516.54 Q711.461 1521.12 711.461 1529.87 Q711.461 1538.6 708.382 1543.21 Q705.327 1547.79 699.516 1547.79 Q693.706 1547.79 690.628 1543.21 Q687.572 1538.6 687.572 1529.87 Q687.572 1521.12 690.628 1516.54 Q693.706 1511.93 699.516 1511.93 Z" fill="#000000" fill-rule="evenodd" fill-opacity="1" /><path clip-path="url(#clip820)" d="M 0 0 M719.678 1541.24 L724.563 1541.24 L724.563 1547.12 L719.678 1547.12 L719.678 1541.24 Z" fill="#000000" fill-rule="evenodd" fill-opacity="1" /><path clip-path="url(#clip820)" d="M 0 0 M738.776 1543.18 L755.095 1543.18 L755.095 1547.12 L733.151 1547.12 L733.151 1543.18 Q735.813 1540.43 740.396 1535.8 Q745.002 1531.15 746.183 1529.81 Q748.428 1527.28 749.308 1525.55 Q750.211 1523.79 750.211 1522.1 Q750.211 1519.34 748.266 1517.61 Q746.345 1515.87 743.243 1515.87 Q741.044 1515.87 738.59 1516.63 Q736.16 1517.4 733.382 1518.95 L733.382 1514.23 Q736.206 1513.09 738.66 1512.51 Q741.113 1511.93 743.151 1511.93 Q748.521 1511.93 751.715 1514.62 Q754.91 1517.31 754.91 1521.8 Q754.91 1523.93 754.1 1525.85 Q753.312 1527.74 751.206 1530.34 Q750.627 1531.01 747.525 1534.23 Q744.424 1537.42 738.776 1543.18 Z" fill="#000000" fill-rule="evenodd" fill-opacity="1" /><path clip-path="url(#clip820)" d="M 0 0 M764.956 1512.56 L783.312 1512.56 L783.312 1516.5 L769.238 1516.5 L769.238 1524.97 Q770.257 1524.62 771.275 1524.46 Q772.294 1524.27 773.312 1524.27 Q779.099 1524.27 782.479 1527.44 Q785.859 1530.62 785.859 1536.03 Q785.859 1541.61 782.386 1544.71 Q778.914 1547.79 772.595 1547.79 Q770.419 1547.79 768.15 1547.42 Q765.905 1547.05 763.498 1546.31 L763.498 1541.61 Q765.581 1542.74 767.803 1543.3 Q770.025 1543.86 772.502 1543.86 Q776.507 1543.86 778.845 1541.75 Q781.183 1539.64 781.183 1536.03 Q781.183 1532.42 778.845 1530.31 Q776.507 1528.21 772.502 1528.21 Q770.627 1528.21 768.752 1528.62 Q766.9 1529.04 764.956 1529.92 L764.956 1512.56 Z" fill="#000000" fill-rule="evenodd" fill-opacity="1" /><path clip-path="url(#clip820)" d="M 0 0 M1216.98 1515.64 Q1213.37 1515.64 1211.54 1519.2 Q1209.74 1522.75 1209.74 1529.87 Q1209.74 1536.98 1211.54 1540.55 Q1213.37 1544.09 1216.98 1544.09 Q1220.61 1544.09 1222.42 1540.55 Q1224.25 1536.98 1224.25 1529.87 Q1224.25 1522.75 1222.42 1519.2 Q1220.61 1515.64 1216.98 1515.64 M1216.98 1511.93 Q1222.79 1511.93 1225.85 1516.54 Q1228.92 1521.12 1228.92 1529.87 Q1228.92 1538.6 1225.85 1543.21 Q1222.79 1547.79 1216.98 1547.79 Q1211.17 1547.79 1208.09 1543.21 Q1205.04 1538.6 1205.04 1529.87 Q1205.04 1521.12 1208.09 1516.54 Q1211.17 1511.93 1216.98 1511.93 Z" fill="#000000" fill-rule="evenodd" fill-opacity="1" /><path clip-path="url(#clip820)" d="M 0 0 M1237.14 1541.24 L1242.03 1541.24 L1242.03 1547.12 L1237.14 1547.12 L1237.14 1541.24 Z" fill="#000000" fill-rule="evenodd" fill-opacity="1" /><path clip-path="url(#clip820)" d="M 0 0 M1252.26 1512.56 L1270.61 1512.56 L1270.61 1516.5 L1256.54 1516.5 L1256.54 1524.97 Q1257.56 1524.62 1258.58 1524.46 Q1259.6 1524.27 1260.61 1524.27 Q1266.4 1524.27 1269.78 1527.44 Q1273.16 1530.62 1273.16 1536.03 Q1273.16 1541.61 1269.69 1544.71 Q1266.22 1547.79 1259.9 1547.79 Q1257.72 1547.79 1255.45 1547.42 Q1253.21 1547.05 1250.8 1546.31 L1250.8 1541.61 Q1252.88 1542.74 1255.11 1543.3 Q1257.33 1543.86 1259.8 1543.86 Q1263.81 1543.86 1266.15 1541.75 Q1268.48 1539.64 1268.48 1536.03 Q1268.48 1532.42 1266.15 1530.31 Q1263.81 1528.21 1259.8 1528.21 Q1257.93 1528.21 1256.05 1528.62 Q1254.2 1529.04 1252.26 1529.92 L1252.26 1512.56 Z" fill="#000000" fill-rule="evenodd" fill-opacity="1" /><path clip-path="url(#clip820)" d="M 0 0 M1292.37 1515.64 Q1288.76 1515.64 1286.93 1519.2 Q1285.13 1522.75 1285.13 1529.87 Q1285.13 1536.98 1286.93 1540.55 Q1288.76 1544.09 1292.37 1544.09 Q1296.01 1544.09 1297.81 1540.55 Q1299.64 1536.98 1299.64 1529.87 Q1299.64 1522.75 1297.81 1519.2 Q1296.01 1515.64 1292.37 1515.64 M1292.37 1511.93 Q1298.18 1511.93 1301.24 1516.54 Q1304.32 1521.12 1304.32 1529.87 Q1304.32 1538.6 1301.24 1543.21 Q1298.18 1547.79 1292.37 1547.79 Q1286.56 1547.79 1283.48 1543.21 Q1280.43 1538.6 1280.43 1529.87 Q1280.43 1521.12 1283.48 1516.54 Q1286.56 1511.93 1292.37 1511.93 Z" fill="#000000" fill-rule="evenodd" fill-opacity="1" /><path clip-path="url(#clip820)" d="M 0 0 M1735.44 1515.64 Q1731.83 1515.64 1730 1519.2 Q1728.19 1522.75 1728.19 1529.87 Q1728.19 1536.98 1730 1540.55 Q1731.83 1544.09 1735.44 1544.09 Q1739.07 1544.09 1740.88 1540.55 Q1742.71 1536.98 1742.71 1529.87 Q1742.71 1522.75 1740.88 1519.2 Q1739.07 1515.64 1735.44 1515.64 M1735.44 1511.93 Q1741.25 1511.93 1744.31 1516.54 Q1747.38 1521.12 1747.38 1529.87 Q1747.38 1538.6 1744.31 1543.21 Q1741.25 1547.79 1735.44 1547.79 Q1729.63 1547.79 1726.55 1543.21 Q1723.5 1538.6 1723.5 1529.87 Q1723.5 1521.12 1726.55 1516.54 Q1729.63 1511.93 1735.44 1511.93 Z" fill="#000000" fill-rule="evenodd" fill-opacity="1" /><path clip-path="url(#clip820)" d="M 0 0 M1755.6 1541.24 L1760.49 1541.24 L1760.49 1547.12 L1755.6 1547.12 L1755.6 1541.24 Z" fill="#000000" fill-rule="evenodd" fill-opacity="1" /><path clip-path="url(#clip820)" d="M 0 0 M1769.49 1512.56 L1791.71 1512.56 L1791.71 1514.55 L1779.17 1547.12 L1774.28 1547.12 L1786.09 1516.5 L1769.49 1516.5 L1769.49 1512.56 Z" fill="#000000" fill-rule="evenodd" fill-opacity="1" /><path clip-path="url(#clip820)" d="M 0 0 M1800.88 1512.56 L1819.24 1512.56 L1819.24 1516.5 L1805.16 1516.5 L1805.16 1524.97 Q1806.18 1524.62 1807.2 1524.46 Q1808.22 1524.27 1809.24 1524.27 Q1815.02 1524.27 1818.4 1527.44 Q1821.78 1530.62 1821.78 1536.03 Q1821.78 1541.61 1818.31 1544.71 Q1814.84 1547.79 1808.52 1547.79 Q1806.34 1547.79 1804.07 1547.42 Q1801.83 1547.05 1799.42 1546.31 L1799.42 1541.61 Q1801.5 1542.74 1803.73 1543.3 Q1805.95 1543.86 1808.43 1543.86 Q1812.43 1543.86 1814.77 1541.75 Q1817.11 1539.64 1817.11 1536.03 Q1817.11 1532.42 1814.77 1530.31 Q1812.43 1528.21 1808.43 1528.21 Q1806.55 1528.21 1804.68 1528.62 Q1802.82 1529.04 1800.88 1529.92 L1800.88 1512.56 Z" fill="#000000" fill-rule="evenodd" fill-opacity="1" /><path clip-path="url(#clip820)" d="M 0 0 M2242.67 1543.18 L2250.31 1543.18 L2250.31 1516.82 L2242 1518.49 L2242 1514.23 L2250.27 1512.56 L2254.94 1512.56 L2254.94 1543.18 L2262.58 1543.18 L2262.58 1547.12 L2242.67 1547.12 L2242.67 1543.18 Z" fill="#000000" fill-rule="evenodd" fill-opacity="1" /><path clip-path="url(#clip820)" d="M 0 0 M2272.02 1541.24 L2276.91 1541.24 L2276.91 1547.12 L2272.02 1547.12 L2272.02 1541.24 Z" fill="#000000" fill-rule="evenodd" fill-opacity="1" /><path clip-path="url(#clip820)" d="M 0 0 M2297.09 1515.64 Q2293.48 1515.64 2291.65 1519.2 Q2289.85 1522.75 2289.85 1529.87 Q2289.85 1536.98 2291.65 1540.55 Q2293.48 1544.09 2297.09 1544.09 Q2300.73 1544.09 2302.53 1540.55 Q2304.36 1536.98 2304.36 1529.87 Q2304.36 1522.75 2302.53 1519.2 Q2300.73 1515.64 2297.09 1515.64 M2297.09 1511.93 Q2302.9 1511.93 2305.96 1516.54 Q2309.04 1521.12 2309.04 1529.87 Q2309.04 1538.6 2305.96 1543.21 Q2302.9 1547.79 2297.09 1547.79 Q2291.28 1547.79 2288.2 1543.21 Q2285.15 1538.6 2285.15 1529.87 Q2285.15 1521.12 2288.2 1516.54 Q2291.28 1511.93 2297.09 1511.93 Z" fill="#000000" fill-rule="evenodd" fill-opacity="1" /><path clip-path="url(#clip820)" d="M 0 0 M2327.26 1515.64 Q2323.64 1515.64 2321.82 1519.2 Q2320.01 1522.75 2320.01 1529.87 Q2320.01 1536.98 2321.82 1540.55 Q2323.64 1544.09 2327.26 1544.09 Q2330.89 1544.09 2332.7 1540.55 Q2334.52 1536.98 2334.52 1529.87 Q2334.52 1522.75 2332.7 1519.2 Q2330.89 1515.64 2327.26 1515.64 M2327.26 1511.93 Q2333.07 1511.93 2336.12 1516.54 Q2339.2 1521.12 2339.2 1529.87 Q2339.2 1538.6 2336.12 1543.21 Q2333.07 1547.79 2327.26 1547.79 Q2321.45 1547.79 2318.37 1543.21 Q2315.31 1538.6 2315.31 1529.87 Q2315.31 1521.12 2318.37 1516.54 Q2321.45 1511.93 2327.26 1511.93 Z" fill="#000000" fill-rule="evenodd" fill-opacity="1" /><polyline clip-path="url(#clip822)" style="stroke:#000000; stroke-width:2; stroke-opacity:0.1; fill:none" points="
  156.598,1445.72 2352.76,1445.72 
  "/>
<polyline clip-path="url(#clip822)" style="stroke:#000000; stroke-width:2; stroke-opacity:0.1; fill:none" points="
  156.598,1222.84 2352.76,1222.84 
  "/>
<polyline clip-path="url(#clip822)" style="stroke:#000000; stroke-width:2; stroke-opacity:0.1; fill:none" points="
  156.598,999.958 2352.76,999.958 
  "/>
<polyline clip-path="url(#clip822)" style="stroke:#000000; stroke-width:2; stroke-opacity:0.1; fill:none" points="
  156.598,777.08 2352.76,777.08 
  "/>
<polyline clip-path="url(#clip822)" style="stroke:#000000; stroke-width:2; stroke-opacity:0.1; fill:none" points="
  156.598,554.201 2352.76,554.201 
  "/>
<polyline clip-path="url(#clip822)" style="stroke:#000000; stroke-width:2; stroke-opacity:0.1; fill:none" points="
  156.598,331.322 2352.76,331.322 
  "/>
<polyline clip-path="url(#clip822)" style="stroke:#000000; stroke-width:2; stroke-opacity:0.1; fill:none" points="
  156.598,108.444 2352.76,108.444 
  "/>
<polyline clip-path="url(#clip820)" style="stroke:#000000; stroke-width:4; stroke-opacity:1; fill:none" points="
  156.598,1486.45 156.598,47.2441 
  "/>
<polyline clip-path="url(#clip820)" style="stroke:#000000; stroke-width:4; stroke-opacity:1; fill:none" points="
  156.598,1445.72 182.952,1445.72 
  "/>
<polyline clip-path="url(#clip820)" style="stroke:#000000; stroke-width:4; stroke-opacity:1; fill:none" points="
  156.598,1222.84 182.952,1222.84 
  "/>
<polyline clip-path="url(#clip820)" style="stroke:#000000; stroke-width:4; stroke-opacity:1; fill:none" points="
  156.598,999.958 182.952,999.958 
  "/>
<polyline clip-path="url(#clip820)" style="stroke:#000000; stroke-width:4; stroke-opacity:1; fill:none" points="
  156.598,777.08 182.952,777.08 
  "/>
<polyline clip-path="url(#clip820)" style="stroke:#000000; stroke-width:4; stroke-opacity:1; fill:none" points="
  156.598,554.201 182.952,554.201 
  "/>
<polyline clip-path="url(#clip820)" style="stroke:#000000; stroke-width:4; stroke-opacity:1; fill:none" points="
  156.598,331.322 182.952,331.322 
  "/>
<polyline clip-path="url(#clip820)" style="stroke:#000000; stroke-width:4; stroke-opacity:1; fill:none" points="
  156.598,108.444 182.952,108.444 
  "/>
<path clip-path="url(#clip820)" d="M 0 0 M63.4226 1431.51 Q59.8115 1431.51 57.9828 1435.08 Q56.1773 1438.62 56.1773 1445.75 Q56.1773 1452.86 57.9828 1456.42 Q59.8115 1459.96 63.4226 1459.96 Q67.0569 1459.96 68.8624 1456.42 Q70.6911 1452.86 70.6911 1445.75 Q70.6911 1438.62 68.8624 1435.08 Q67.0569 1431.51 63.4226 1431.51 M63.4226 1427.81 Q69.2328 1427.81 72.2883 1432.42 Q75.367 1437 75.367 1445.75 Q75.367 1454.48 72.2883 1459.08 Q69.2328 1463.67 63.4226 1463.67 Q57.6125 1463.67 54.5338 1459.08 Q51.4782 1454.48 51.4782 1445.75 Q51.4782 1437 54.5338 1432.42 Q57.6125 1427.81 63.4226 1427.81 Z" fill="#000000" fill-rule="evenodd" fill-opacity="1" /><path clip-path="url(#clip820)" d="M 0 0 M83.5845 1457.12 L88.4688 1457.12 L88.4688 1463 L83.5845 1463 L83.5845 1457.12 Z" fill="#000000" fill-rule="evenodd" fill-opacity="1" /><path clip-path="url(#clip820)" d="M 0 0 M108.654 1431.51 Q105.043 1431.51 103.214 1435.08 Q101.409 1438.62 101.409 1445.75 Q101.409 1452.86 103.214 1456.42 Q105.043 1459.96 108.654 1459.96 Q112.288 1459.96 114.094 1456.42 Q115.922 1452.86 115.922 1445.75 Q115.922 1438.62 114.094 1435.08 Q112.288 1431.51 108.654 1431.51 M108.654 1427.81 Q114.464 1427.81 117.52 1432.42 Q120.598 1437 120.598 1445.75 Q120.598 1454.48 117.52 1459.08 Q114.464 1463.67 108.654 1463.67 Q102.844 1463.67 99.765 1459.08 Q96.7095 1454.48 96.7095 1445.75 Q96.7095 1437 99.765 1432.42 Q102.844 1427.81 108.654 1427.81 Z" fill="#000000" fill-rule="evenodd" fill-opacity="1" /><path clip-path="url(#clip820)" d="M 0 0 M65.0198 1208.64 Q61.4087 1208.64 59.58 1212.2 Q57.7745 1215.74 57.7745 1222.87 Q57.7745 1229.98 59.58 1233.54 Q61.4087 1237.08 65.0198 1237.08 Q68.6541 1237.08 70.4596 1233.54 Q72.2883 1229.98 72.2883 1222.87 Q72.2883 1215.74 70.4596 1212.2 Q68.6541 1208.64 65.0198 1208.64 M65.0198 1204.93 Q70.83 1204.93 73.8855 1209.54 Q76.9642 1214.12 76.9642 1222.87 Q76.9642 1231.6 73.8855 1236.21 Q70.83 1240.79 65.0198 1240.79 Q59.2097 1240.79 56.131 1236.21 Q53.0754 1231.6 53.0754 1222.87 Q53.0754 1214.12 56.131 1209.54 Q59.2097 1204.93 65.0198 1204.93 Z" fill="#000000" fill-rule="evenodd" fill-opacity="1" /><path clip-path="url(#clip820)" d="M 0 0 M85.1818 1234.24 L90.066 1234.24 L90.066 1240.12 L85.1818 1240.12 L85.1818 1234.24 Z" fill="#000000" fill-rule="evenodd" fill-opacity="1" /><path clip-path="url(#clip820)" d="M 0 0 M104.279 1236.18 L120.598 1236.18 L120.598 1240.12 L98.6539 1240.12 L98.6539 1236.18 Q101.316 1233.43 105.899 1228.8 Q110.506 1224.14 111.686 1222.8 Q113.932 1220.28 114.811 1218.54 Q115.714 1216.78 115.714 1215.09 Q115.714 1212.34 113.77 1210.6 Q111.848 1208.87 108.746 1208.87 Q106.547 1208.87 104.094 1209.63 Q101.663 1210.39 98.8854 1211.95 L98.8854 1207.22 Q101.709 1206.09 104.163 1205.51 Q106.617 1204.93 108.654 1204.93 Q114.024 1204.93 117.219 1207.62 Q120.413 1210.3 120.413 1214.79 Q120.413 1216.92 119.603 1218.84 Q118.816 1220.74 116.709 1223.33 Q116.131 1224.01 113.029 1227.22 Q109.927 1230.42 104.279 1236.18 Z" fill="#000000" fill-rule="evenodd" fill-opacity="1" /><path clip-path="url(#clip820)" d="M 0 0 M62.9365 985.757 Q59.3254 985.757 57.4967 989.322 Q55.6912 992.864 55.6912 999.993 Q55.6912 1007.1 57.4967 1010.66 Q59.3254 1014.21 62.9365 1014.21 Q66.5707 1014.21 68.3763 1010.66 Q70.205 1007.1 70.205 999.993 Q70.205 992.864 68.3763 989.322 Q66.5707 985.757 62.9365 985.757 M62.9365 982.053 Q68.7467 982.053 71.8022 986.66 Q74.8809 991.243 74.8809 999.993 Q74.8809 1008.72 71.8022 1013.33 Q68.7467 1017.91 62.9365 1017.91 Q57.1264 1017.91 54.0477 1013.33 Q50.9921 1008.72 50.9921 999.993 Q50.9921 991.243 54.0477 986.66 Q57.1264 982.053 62.9365 982.053 Z" fill="#000000" fill-rule="evenodd" fill-opacity="1" /><path clip-path="url(#clip820)" d="M 0 0 M83.0984 1011.36 L87.9827 1011.36 L87.9827 1017.24 L83.0984 1017.24 L83.0984 1011.36 Z" fill="#000000" fill-rule="evenodd" fill-opacity="1" /><path clip-path="url(#clip820)" d="M 0 0 M111.015 986.752 L99.2095 1005.2 L111.015 1005.2 L111.015 986.752 M109.788 982.678 L115.668 982.678 L115.668 1005.2 L120.598 1005.2 L120.598 1009.09 L115.668 1009.09 L115.668 1017.24 L111.015 1017.24 L111.015 1009.09 L95.4132 1009.09 L95.4132 1004.58 L109.788 982.678 Z" fill="#000000" fill-rule="evenodd" fill-opacity="1" /><path clip-path="url(#clip820)" d="M 0 0 M63.2606 762.878 Q59.6495 762.878 57.8208 766.443 Q56.0152 769.985 56.0152 777.114 Q56.0152 784.221 57.8208 787.786 Q59.6495 791.327 63.2606 791.327 Q66.8948 791.327 68.7004 787.786 Q70.5291 784.221 70.5291 777.114 Q70.5291 769.985 68.7004 766.443 Q66.8948 762.878 63.2606 762.878 M63.2606 759.175 Q69.0707 759.175 72.1263 763.781 Q75.205 768.365 75.205 777.114 Q75.205 785.841 72.1263 790.448 Q69.0707 795.031 63.2606 795.031 Q57.4504 795.031 54.3717 790.448 Q51.3162 785.841 51.3162 777.114 Q51.3162 768.365 54.3717 763.781 Q57.4504 759.175 63.2606 759.175 Z" fill="#000000" fill-rule="evenodd" fill-opacity="1" /><path clip-path="url(#clip820)" d="M 0 0 M83.4225 788.48 L88.3067 788.48 L88.3067 794.36 L83.4225 794.36 L83.4225 788.48 Z" fill="#000000" fill-rule="evenodd" fill-opacity="1" /><path clip-path="url(#clip820)" d="M 0 0 M109.071 775.216 Q105.922 775.216 104.071 777.369 Q102.242 779.522 102.242 783.272 Q102.242 786.999 104.071 789.175 Q105.922 791.327 109.071 791.327 Q112.219 791.327 114.047 789.175 Q115.899 786.999 115.899 783.272 Q115.899 779.522 114.047 777.369 Q112.219 775.216 109.071 775.216 M118.353 760.564 L118.353 764.823 Q116.594 763.99 114.788 763.55 Q113.006 763.11 111.246 763.11 Q106.617 763.11 104.163 766.235 Q101.733 769.36 101.385 775.679 Q102.751 773.665 104.811 772.601 Q106.871 771.513 109.348 771.513 Q114.557 771.513 117.566 774.684 Q120.598 777.832 120.598 783.272 Q120.598 788.596 117.45 791.813 Q114.302 795.031 109.071 795.031 Q103.075 795.031 99.9039 790.448 Q96.7326 785.841 96.7326 777.114 Q96.7326 768.92 100.621 764.059 Q104.51 759.175 111.061 759.175 Q112.82 759.175 114.603 759.522 Q116.408 759.869 118.353 760.564 Z" fill="#000000" fill-rule="evenodd" fill-opacity="1" /><path clip-path="url(#clip820)" d="M 0 0 M63.5152 540 Q59.9041 540 58.0754 543.565 Q56.2699 547.106 56.2699 554.236 Q56.2699 561.342 58.0754 564.907 Q59.9041 568.449 63.5152 568.449 Q67.1494 568.449 68.955 564.907 Q70.7837 561.342 70.7837 554.236 Q70.7837 547.106 68.955 543.565 Q67.1494 540 63.5152 540 M63.5152 536.296 Q69.3254 536.296 72.3809 540.903 Q75.4596 545.486 75.4596 554.236 Q75.4596 562.963 72.3809 567.569 Q69.3254 572.152 63.5152 572.152 Q57.7051 572.152 54.6264 567.569 Q51.5708 562.963 51.5708 554.236 Q51.5708 545.486 54.6264 540.903 Q57.7051 536.296 63.5152 536.296 Z" fill="#000000" fill-rule="evenodd" fill-opacity="1" /><path clip-path="url(#clip820)" d="M 0 0 M83.6771 565.601 L88.5614 565.601 L88.5614 571.481 L83.6771 571.481 L83.6771 565.601 Z" fill="#000000" fill-rule="evenodd" fill-opacity="1" /><path clip-path="url(#clip820)" d="M 0 0 M108.746 555.069 Q105.413 555.069 103.492 556.852 Q101.594 558.634 101.594 561.759 Q101.594 564.884 103.492 566.666 Q105.413 568.449 108.746 568.449 Q112.08 568.449 114.001 566.666 Q115.922 564.861 115.922 561.759 Q115.922 558.634 114.001 556.852 Q112.103 555.069 108.746 555.069 M104.071 553.078 Q101.061 552.338 99.3715 550.278 Q97.7048 548.217 97.7048 545.254 Q97.7048 541.111 100.645 538.703 Q103.608 536.296 108.746 536.296 Q113.908 536.296 116.848 538.703 Q119.788 541.111 119.788 545.254 Q119.788 548.217 118.098 550.278 Q116.432 552.338 113.445 553.078 Q116.825 553.865 118.7 556.157 Q120.598 558.449 120.598 561.759 Q120.598 566.782 117.52 569.467 Q114.464 572.152 108.746 572.152 Q103.029 572.152 99.9502 569.467 Q96.8947 566.782 96.8947 561.759 Q96.8947 558.449 98.7928 556.157 Q100.691 553.865 104.071 553.078 M102.358 545.694 Q102.358 548.379 104.024 549.884 Q105.714 551.389 108.746 551.389 Q111.756 551.389 113.445 549.884 Q115.158 548.379 115.158 545.694 Q115.158 543.009 113.445 541.504 Q111.756 540 108.746 540 Q105.714 540 104.024 541.504 Q102.358 543.009 102.358 545.694 Z" fill="#000000" fill-rule="evenodd" fill-opacity="1" /><path clip-path="url(#clip820)" d="M 0 0 M54.2328 344.667 L61.8717 344.667 L61.8717 318.302 L53.5616 319.968 L53.5616 315.709 L61.8254 314.042 L66.5013 314.042 L66.5013 344.667 L74.1402 344.667 L74.1402 348.602 L54.2328 348.602 L54.2328 344.667 Z" fill="#000000" fill-rule="evenodd" fill-opacity="1" /><path clip-path="url(#clip820)" d="M 0 0 M83.5845 342.723 L88.4688 342.723 L88.4688 348.602 L83.5845 348.602 L83.5845 342.723 Z" fill="#000000" fill-rule="evenodd" fill-opacity="1" /><path clip-path="url(#clip820)" d="M 0 0 M108.654 317.121 Q105.043 317.121 103.214 320.686 Q101.409 324.228 101.409 331.357 Q101.409 338.464 103.214 342.028 Q105.043 345.57 108.654 345.57 Q112.288 345.57 114.094 342.028 Q115.922 338.464 115.922 331.357 Q115.922 324.228 114.094 320.686 Q112.288 317.121 108.654 317.121 M108.654 313.417 Q114.464 313.417 117.52 318.024 Q120.598 322.607 120.598 331.357 Q120.598 340.084 117.52 344.69 Q114.464 349.274 108.654 349.274 Q102.844 349.274 99.765 344.69 Q96.7095 340.084 96.7095 331.357 Q96.7095 322.607 99.765 318.024 Q102.844 313.417 108.654 313.417 Z" fill="#000000" fill-rule="evenodd" fill-opacity="1" /><path clip-path="url(#clip820)" d="M 0 0 M55.8301 121.789 L63.4689 121.789 L63.4689 95.423 L55.1588 97.0897 L55.1588 92.8304 L63.4226 91.1638 L68.0985 91.1638 L68.0985 121.789 L75.7374 121.789 L75.7374 125.724 L55.8301 125.724 L55.8301 121.789 Z" fill="#000000" fill-rule="evenodd" fill-opacity="1" /><path clip-path="url(#clip820)" d="M 0 0 M85.1818 119.844 L90.066 119.844 L90.066 125.724 L85.1818 125.724 L85.1818 119.844 Z" fill="#000000" fill-rule="evenodd" fill-opacity="1" /><path clip-path="url(#clip820)" d="M 0 0 M104.279 121.789 L120.598 121.789 L120.598 125.724 L98.6539 125.724 L98.6539 121.789 Q101.316 119.034 105.899 114.404 Q110.506 109.752 111.686 108.409 Q113.932 105.886 114.811 104.15 Q115.714 102.391 115.714 100.701 Q115.714 97.9462 113.77 96.2101 Q111.848 94.474 108.746 94.474 Q106.547 94.474 104.094 95.2378 Q101.663 96.0017 98.8854 97.5526 L98.8854 92.8304 Q101.709 91.6962 104.163 91.1175 Q106.617 90.5388 108.654 90.5388 Q114.024 90.5388 117.219 93.224 Q120.413 95.9091 120.413 100.4 Q120.413 102.529 119.603 104.451 Q118.816 106.349 116.709 108.941 Q116.131 109.613 113.029 112.83 Q109.927 116.025 104.279 121.789 Z" fill="#000000" fill-rule="evenodd" fill-opacity="1" /><polyline clip-path="url(#clip822)" style="stroke:#009af9; stroke-width:4; stroke-opacity:1; fill:none" points="
  218.754,1445.72 239.472,1432.14 260.191,1418.56 280.909,1404.98 301.628,1391.41 322.346,1377.83 343.064,1364.25 363.783,1350.67 384.501,1337.1 405.22,1323.52 
  425.938,1309.94 446.657,1296.36 467.375,1282.79 488.094,1269.21 508.812,1255.63 529.531,1242.05 550.249,1228.48 570.968,1214.9 591.686,1201.32 612.405,1187.75 
  633.123,1174.17 653.841,1160.59 674.56,1147.01 695.278,1133.44 715.997,1119.86 736.715,1106.28 757.434,1092.7 778.152,1079.13 798.871,1065.55 819.589,1051.97 
  840.308,1038.39 861.026,1024.82 881.745,1011.24 902.463,997.662 923.182,984.084 943.9,970.507 964.619,956.93 985.337,943.352 1006.06,929.775 1026.77,916.197 
  1047.49,902.62 1068.21,889.043 1088.93,875.465 1109.65,861.888 1130.37,848.31 1151.08,834.733 1171.8,821.156 1192.52,807.578 1213.24,794.001 1233.96,780.423 
  1254.68,766.846 1275.4,753.269 1296.11,739.691 1316.83,726.114 1337.55,712.536 1358.27,698.959 1378.99,685.382 1399.71,671.804 1420.42,658.227 1441.14,644.649 
  1461.86,631.072 1482.58,617.495 1503.3,603.917 1524.02,590.34 1544.74,576.762 1565.45,563.185 1586.17,549.608 1606.89,536.03 1627.61,522.453 1648.33,508.875 
  1669.05,495.298 1689.76,481.721 1710.48,468.143 1731.2,454.566 1751.92,440.989 1772.64,427.411 1793.36,413.834 1814.08,400.256 1834.79,386.679 1855.51,373.102 
  1876.23,359.524 1896.95,345.947 1917.67,332.369 1938.39,318.792 1959.11,305.215 1979.82,291.637 2000.54,278.06 2021.26,264.482 2041.98,250.905 2062.7,237.328 
  2083.42,223.75 2104.13,210.173 2124.85,196.595 2145.57,183.018 2166.29,169.441 2187.01,155.863 2207.73,142.286 2228.45,128.708 2249.16,115.131 2269.88,101.554 
  2290.6,87.9763 
  "/>
<path clip-path="url(#clip820)" d="
M1983.1 216.178 L2279.55 216.178 L2279.55 95.2176 L1983.1 95.2176  Z
  " fill="#ffffff" fill-rule="evenodd" fill-opacity="1"/>
<polyline clip-path="url(#clip820)" style="stroke:#000000; stroke-width:4; stroke-opacity:1; fill:none" points="
  1983.1,216.178 2279.55,216.178 2279.55,95.2176 1983.1,95.2176 1983.1,216.178 
  "/>
<polyline clip-path="url(#clip820)" style="stroke:#009af9; stroke-width:4; stroke-opacity:1; fill:none" points="
  2007.5,155.698 2153.92,155.698 
  "/>
<path clip-path="url(#clip820)" d="M 0 0 M2192.16 175.385 Q2190.35 180.015 2188.64 181.427 Q2186.93 182.839 2184.06 182.839 L2180.65 182.839 L2180.65 179.274 L2183.15 179.274 Q2184.91 179.274 2185.89 178.44 Q2186.86 177.607 2188.04 174.505 L2188.8 172.561 L2178.32 147.052 L2182.83 147.052 L2190.93 167.329 L2199.03 147.052 L2203.55 147.052 L2192.16 175.385 Z" fill="#000000" fill-rule="evenodd" fill-opacity="1" /><path clip-path="url(#clip820)" d="M 0 0 M2210.84 169.042 L2218.48 169.042 L2218.48 142.677 L2210.17 144.343 L2210.17 140.084 L2218.43 138.418 L2223.11 138.418 L2223.11 169.042 L2230.75 169.042 L2230.75 172.978 L2210.84 172.978 L2210.84 169.042 Z" fill="#000000" fill-rule="evenodd" fill-opacity="1" /></svg>
